<svg width="32" height="32" viewBox="0 0 32 32" fill="none" xmlns="http://www.w3.org/2000/svg">
  <rect width="32" height="32" rx="6" fill="url(#gradient)"/>
  <path d="M8 10C8 8.89543 8.89543 8 10 8H14C15.1046 8 16 8.89543 16 10V22C16 23.1046 15.1046 24 14 24H10C8.89543 24 8 23.1046 8 22V10Z" fill="white"/>
  <path d="M18 6C18 4.89543 18.8954 4 20 4H24C25.1046 4 26 4.89543 26 6V26C26 27.1046 25.1046 28 24 28H20C18.8954 28 18 27.1046 18 26V6Z" fill="white" fill-opacity="0.8"/>
  <circle cx="12" cy="16" r="1.5" fill="#667eea"/>
  <circle cx="22" cy="15" r="1.5" fill="#667eea"/>
  <defs>
    <linearGradient id="gradient" x1="0" y1="0" x2="32" y2="32" gradientUnits="userSpaceOnUse">
      <stop stop-color="#667eea"/>
      <stop offset="1" stop-color="#764ba2"/>
    </linearGradient>
  </defs>
</svg>